<?xml version="1.0" encoding="UTF-8" standalone="no"?>
<!DOCTYPE svg PUBLIC "-//W3C//DTD SVG 1.1//EN"
 "http://www.w3.org/Graphics/SVG/1.1/DTD/svg11.dtd">
<!-- Generated by graphviz version 2.38.0 (20140413.2041)
 -->
<!-- Title: trie Pages: 1 -->
<svg width="692pt" height="349pt"
 viewBox="0.00 0.00 692.00 349.00" xmlns="http://www.w3.org/2000/svg" xmlns:xlink="http://www.w3.org/1999/xlink">
<g id="graph0" class="graph" transform="scale(1 1) rotate(0) translate(4 345)">
<title>trie</title>
<polygon fill="white" stroke="none" points="-4,4 -4,-345 688,-345 688,4 -4,4"/>
<text text-anchor="middle" x="342" y="-7.8" font-family="Times,serif" font-size="14.00">Chain of trust for www.google.com</text>
<!-- equifax -->
<g id="node1" class="node"><title>equifax</title>
<path fill="none" stroke="grey" d="M174,-294.5C174,-294.5 582,-294.5 582,-294.5 588,-294.5 594,-300.5 594,-306.5 594,-306.5 594,-328.5 594,-328.5 594,-334.5 588,-340.5 582,-340.5 582,-340.5 174,-340.5 174,-340.5 168,-340.5 162,-334.5 162,-328.5 162,-328.5 162,-306.5 162,-306.5 162,-300.5 168,-294.5 174,-294.5"/>
<text text-anchor="start" x="170" y="-325.3" font-family="Times,serif" font-size="14.00">Subject: GeoTrust Global CA </text>
<polyline fill="none" stroke="grey" points="162,-317.5 594,-317.5 "/>
<text text-anchor="start" x="170" y="-302.3" font-family="Times,serif" font-size="14.00">Issuer: Equifax Secure Certificate Authority </text>
</g>
<!-- geotrust -->
<g id="node2" class="node"><title>geotrust</title>
<path fill="none" stroke="grey" d="M174,-211.5C174,-211.5 582,-211.5 582,-211.5 588,-211.5 594,-217.5 594,-223.5 594,-223.5 594,-245.5 594,-245.5 594,-251.5 588,-257.5 582,-257.5 582,-257.5 174,-257.5 174,-257.5 168,-257.5 162,-251.5 162,-245.5 162,-245.5 162,-223.5 162,-223.5 162,-217.5 168,-211.5 174,-211.5"/>
<text text-anchor="start" x="170" y="-242.3" font-family="Times,serif" font-size="14.00">Subject: Google Internet Authority G2 </text>
<polyline fill="none" stroke="grey" points="162,-234.5 594,-234.5 "/>
<text text-anchor="start" x="170" y="-219.3" font-family="Times,serif" font-size="14.00">Issuer: GeoTrust Global CA </text>
</g>
<!-- equifax&#45;&gt;geotrust -->
<g id="edge1" class="edge"><title>equifax&#45;&gt;geotrust</title>
<path fill="none" stroke="black" d="M378,-294.366C378,-286.152 378,-276.658 378,-267.725"/>
<polygon fill="black" stroke="black" points="381.5,-267.607 378,-257.607 374.5,-267.607 381.5,-267.607"/>
</g>
<!-- g2 -->
<g id="node3" class="node"><title>g2</title>
<path fill="none" stroke="grey" d="M174,-128.5C174,-128.5 582,-128.5 582,-128.5 588,-128.5 594,-134.5 594,-140.5 594,-140.5 594,-162.5 594,-162.5 594,-168.5 588,-174.5 582,-174.5 582,-174.5 174,-174.5 174,-174.5 168,-174.5 162,-168.5 162,-162.5 162,-162.5 162,-140.5 162,-140.5 162,-134.5 168,-128.5 174,-128.5"/>
<text text-anchor="start" x="170" y="-159.3" font-family="Times,serif" font-size="14.00">Subject: google.com </text>
<polyline fill="none" stroke="grey" points="162,-151.5 594,-151.5 "/>
<text text-anchor="start" x="170" y="-136.3" font-family="Times,serif" font-size="14.00">Issuer: Google Internet Authority G2 </text>
</g>
<!-- geotrust&#45;&gt;g2 -->
<g id="edge3" class="edge"><title>geotrust&#45;&gt;g2</title>
<path fill="none" stroke="black" d="M378,-211.366C378,-203.152 378,-193.658 378,-184.725"/>
<polygon fill="black" stroke="black" points="381.5,-184.607 378,-174.607 374.5,-184.607 381.5,-184.607"/>
</g>
<!-- google_site -->
<g id="node4" class="node"><title>google_site</title>
<path fill="none" stroke="red" d="M174,-55.5C174,-55.5 582,-55.5 582,-55.5 588,-55.5 594,-61.5 594,-67.5 594,-67.5 594,-79.5 594,-79.5 594,-85.5 588,-91.5 582,-91.5 582,-91.5 174,-91.5 174,-91.5 168,-91.5 162,-85.5 162,-79.5 162,-79.5 162,-67.5 162,-67.5 162,-61.5 168,-55.5 174,-55.5"/>
<text text-anchor="start" x="170" y="-69.8" font-family="Times,serif" font-size="14.00">www.google.com </text>
</g>
<!-- g2&#45;&gt;google_site -->
<g id="edge4" class="edge"><title>g2&#45;&gt;google_site</title>
<path fill="none" stroke="black" d="M378,-128.109C378,-119.981 378,-110.7 378,-102.171"/>
<polygon fill="black" stroke="black" points="381.5,-101.912 378,-91.9121 374.5,-101.912 381.5,-101.912"/>
</g>
<!-- root -->
<g id="node5" class="node"><title>root</title>
<text text-anchor="middle" x="72" y="-313.8" font-family="Times,serif" font-size="14.00">root</text>
</g>
<!-- root&#45;&gt;equifax -->
<g id="edge2" class="edge"><title>root&#45;&gt;equifax</title>
<path fill="none" stroke="black" d="M144.018,-317.5C148.288,-317.5 152.558,-317.5 156.828,-317.5"/>
<polygon fill="black" stroke="black" points="156.84,-319.25 161.84,-317.5 156.84,-315.75 156.84,-319.25"/>
</g>
<!-- leaf -->
<g id="node6" class="node"><title>leaf</title>
<text text-anchor="middle" x="72" y="-69.8" font-family="Times,serif" font-size="14.00">leaf</text>
</g>
<!-- leaf&#45;&gt;google_site -->
<g id="edge5" class="edge"><title>leaf&#45;&gt;google_site</title>
<path fill="none" stroke="black" d="M144.018,-73.5C148.288,-73.5 152.558,-73.5 156.828,-73.5"/>
<polygon fill="black" stroke="black" points="156.84,-75.2501 161.84,-73.5 156.84,-71.7501 156.84,-75.2501"/>
</g>
<!-- 0 -->
<g id="node7" class="node"><title>0</title>
<text text-anchor="middle" x="648" y="-147.8" font-family="Times,serif" font-size="14.00">0</text>
</g>
<!-- 1 -->
<g id="node8" class="node"><title>1</title>
<text text-anchor="middle" x="648" y="-230.8" font-family="Times,serif" font-size="14.00">1</text>
</g>
<!-- 2 -->
<g id="node9" class="node"><title>2</title>
<text text-anchor="middle" x="648" y="-313.8" font-family="Times,serif" font-size="14.00">2</text>
</g>
</g>
</svg>
