<?xml version="1.0" encoding="UTF-8" standalone="no"?>
<!DOCTYPE svg PUBLIC "-//W3C//DTD SVG 1.1//EN"
 "http://www.w3.org/Graphics/SVG/1.1/DTD/svg11.dtd">
<!-- Generated by graphviz version 2.38.0 (20140413.2041)
 -->
<!-- Title: mylab Pages: 1 -->
<svg width="526pt" height="264pt"
 viewBox="0.00 0.00 525.60 263.60" xmlns="http://www.w3.org/2000/svg" xmlns:xlink="http://www.w3.org/1999/xlink">
<g id="graph0" class="graph" transform="scale(1 1) rotate(0) translate(28.8 234.8)">
<title>mylab</title>
<polygon fill="white" stroke="none" points="-28.8,28.8 -28.8,-234.8 496.8,-234.8 496.8,28.8 -28.8,28.8"/>
<!-- SW1 -->
<g id="node1" class="node"><title>SW1</title>
<polygon fill="none" stroke="black" points="0,-91.5 0,-114.5 108,-114.5 108,-91.5 0,-91.5"/>
<text text-anchor="middle" x="54" y="-99.3" font-family="FreeSans" font-size="14.00">SW1</text>
</g>
<!-- SW2 -->
<g id="node2" class="node"><title>SW2</title>
<polygon fill="none" stroke="black" points="180,-91.5 180,-114.5 288,-114.5 288,-91.5 180,-91.5"/>
<text text-anchor="middle" x="234" y="-99.3" font-family="FreeSans" font-size="14.00">SW2</text>
</g>
<!-- SW1&#45;&#45;SW2 -->
<g id="edge1" class="edge"><title>SW1&#45;&#45;SW2</title>
<path fill="none" stroke="black" d="M118.235,-103C135.423,-103 152.611,-103 169.8,-103"/>
<polygon fill="black" stroke="black" points="108.141,-107 108.141,-99 116.141,-99.0001 116.141,-107 108.141,-107"/>
<polyline fill="none" stroke="black" points="116.141,-103 118.141,-103 "/>
<polygon fill="black" stroke="black" points="169.92,-106.5 179.92,-103 169.92,-99.5001 169.92,-106.5"/>
</g>
<!-- PC1 -->
<g id="node5" class="node"><title>PC1</title>
<polygon fill="none" stroke="black" points="0,-0.5 0,-23.5 108,-23.5 108,-0.5 0,-0.5"/>
<text text-anchor="middle" x="54" y="-8.3" font-family="FreeSans" font-size="14.00">PC1 [.101]</text>
</g>
<!-- SW1&#45;&#45;PC1 -->
<g id="edge6" class="edge"><title>SW1&#45;&#45;PC1</title>
<path fill="none" stroke="black" d="M54,-81.3129C54,-67.0477 54,-48.1547 54,-33.8537"/>
<polygon fill="black" stroke="black" points="50.5001,-81.441 54,-91.441 57.5001,-81.4411 50.5001,-81.441"/>
<polygon fill="black" stroke="black" points="57.5001,-33.5452 54,-23.5452 50.5001,-33.5453 57.5001,-33.5452"/>
</g>
<!-- SW3 -->
<g id="node3" class="node"><title>SW3</title>
<polygon fill="none" stroke="black" points="360,-91.5 360,-114.5 468,-114.5 468,-91.5 360,-91.5"/>
<text text-anchor="middle" x="414" y="-99.3" font-family="FreeSans" font-size="14.00">SW3</text>
</g>
<!-- SW2&#45;&#45;SW3 -->
<g id="edge2" class="edge"><title>SW2&#45;&#45;SW3</title>
<path fill="none" stroke="black" d="M298.235,-103C315.423,-103 332.611,-103 349.8,-103"/>
<polygon fill="black" stroke="black" points="298.141,-99.5001 288.141,-103 298.141,-106.5 298.141,-99.5001"/>
<polygon fill="black" stroke="black" points="349.92,-106.5 359.92,-103 349.92,-99.5001 349.92,-106.5"/>
</g>
<!-- PC4 -->
<g id="node6" class="node"><title>PC4</title>
<polygon fill="none" stroke="black" points="360,-0.5 360,-23.5 468,-23.5 468,-0.5 360,-0.5"/>
<text text-anchor="middle" x="414" y="-8.3" font-family="FreeSans" font-size="14.00">PC5 [.105]</text>
</g>
<!-- SW3&#45;&#45;PC4 -->
<g id="edge7" class="edge"><title>SW3&#45;&#45;PC4</title>
<path fill="none" stroke="black" d="M414,-81.3129C414,-67.0477 414,-48.1547 414,-33.8537"/>
<polygon fill="black" stroke="black" points="410.5,-81.441 414,-91.441 417.5,-81.4411 410.5,-81.441"/>
<polygon fill="black" stroke="black" points="417.5,-33.5452 414,-23.5452 410.5,-33.5453 417.5,-33.5452"/>
</g>
<!-- SW4 -->
<g id="node4" class="node"><title>SW4</title>
<polygon fill="none" stroke="black" points="180,-182.5 180,-205.5 288,-205.5 288,-182.5 180,-182.5"/>
<text text-anchor="middle" x="234" y="-190.3" font-family="FreeSans" font-size="14.00">SW4</text>
</g>
<!-- SW4&#45;&#45;SW1 -->
<g id="edge3" class="edge"><title>SW4&#45;&#45;SW1</title>
<path fill="none" stroke="black" d="M203.482,-177.911C170.335,-161.521 117.694,-135.493 84.5389,-119.1"/>
<polygon fill="black" stroke="black" points="202.129,-181.146 212.645,-182.441 205.232,-174.871 202.129,-181.146"/>
<polygon fill="black" stroke="black" points="85.8428,-115.84 75.3274,-114.545 82.7402,-122.115 85.8428,-115.84"/>
</g>
<!-- SW4&#45;&#45;SW2 -->
<g id="edge4" class="edge"><title>SW4&#45;&#45;SW2</title>
<path fill="none" stroke="black" d="M234,-172.313C234,-158.048 234,-139.155 234,-124.854"/>
<polygon fill="black" stroke="black" points="230.5,-172.441 234,-182.441 237.5,-172.441 230.5,-172.441"/>
<polygon fill="black" stroke="black" points="230,-114.545 238,-114.545 238,-122.545 230,-122.545 230,-114.545"/>
<polyline fill="none" stroke="black" points="234,-122.545 234,-124.545 "/>
</g>
<!-- SW4&#45;&#45;SW3 -->
<g id="edge5" class="edge"><title>SW4&#45;&#45;SW3</title>
<path fill="none" stroke="black" d="M264.518,-177.911C297.665,-161.521 350.306,-135.493 383.461,-119.1"/>
<polygon fill="black" stroke="black" points="262.768,-174.871 255.355,-182.441 265.871,-181.146 262.768,-174.871"/>
<polygon fill="black" stroke="black" points="385.26,-122.115 392.673,-114.545 382.157,-115.84 385.26,-122.115"/>
</g>
</g>
</svg>
