<?xml version="1.0" encoding="UTF-8" standalone="no"?>
<!DOCTYPE svg PUBLIC "-//W3C//DTD SVG 1.1//EN"
 "http://www.w3.org/Graphics/SVG/1.1/DTD/svg11.dtd">
<!-- Generated by graphviz version 2.38.0 (20140413.2041)
 -->
<!-- Title: mylab Pages: 1 -->
<svg width="688pt" height="292pt"
 viewBox="0.00 0.00 687.60 291.60" xmlns="http://www.w3.org/2000/svg" xmlns:xlink="http://www.w3.org/1999/xlink">
<g id="graph0" class="graph" transform="scale(1 1) rotate(0) translate(28.8 262.8)">
<title>mylab</title>
<polygon fill="white" stroke="none" points="-28.8,28.8 -28.8,-262.8 658.8,-262.8 658.8,28.8 -28.8,28.8"/>
<!-- SW1 -->
<g id="node1" class="node"><title>SW1</title>
<polygon fill="none" stroke="black" points="0,-105.5 0,-128.5 108,-128.5 108,-105.5 0,-105.5"/>
<text text-anchor="middle" x="54" y="-113.3" font-family="FreeSans" font-size="14.00">SW1</text>
</g>
<!-- SW2 -->
<g id="node2" class="node"><title>SW2</title>
<polygon fill="none" stroke="black" points="256,-105.5 256,-128.5 364,-128.5 364,-105.5 256,-105.5"/>
<text text-anchor="middle" x="310" y="-113.3" font-family="FreeSans" font-size="14.00">SW2</text>
</g>
<!-- SW1&#45;&#45;SW2 -->
<g id="edge1" class="edge"><title>SW1&#45;&#45;SW2</title>
<path fill="none" stroke="black" d="M118.503,-117C157.396,-117 206.765,-117 245.634,-117"/>
<polygon fill="black" stroke="black" points="118.291,-113.5 108.291,-117 118.291,-120.5 118.291,-113.5"/>
<polygon fill="black" stroke="black" points="245.787,-120.5 255.787,-117 245.787,-113.5 245.787,-120.5"/>
<text text-anchor="middle" x="182" y="-123.4" font-family="FreeSans" font-size="12.00">Fa0/1 &#45; Fa0/1</text>
</g>
<!-- PC1 -->
<g id="node5" class="node"><title>PC1</title>
<polygon fill="none" stroke="black" points="0,-0.5 0,-23.5 108,-23.5 108,-0.5 0,-0.5"/>
<text text-anchor="middle" x="54" y="-8.3" font-family="FreeSans" font-size="14.00">PC1 [.101]</text>
</g>
<!-- SW1&#45;&#45;PC1 -->
<g id="edge6" class="edge"><title>SW1&#45;&#45;PC1</title>
<path fill="none" stroke="black" d="M54,-95.2445C54,-77.4247 54,-51.8581 54,-33.975"/>
<polygon fill="black" stroke="black" points="50.5001,-95.3651 54,-105.365 57.5001,-95.3652 50.5001,-95.3651"/>
<polygon fill="black" stroke="black" points="57.5001,-33.7313 54,-23.7313 50.5001,-33.7314 57.5001,-33.7313"/>
<text text-anchor="middle" x="86" y="-61.4" font-family="FreeSans" font-size="12.00">Fa0/2 &#45; Fa0</text>
</g>
<!-- SW3 -->
<g id="node3" class="node"><title>SW3</title>
<polygon fill="none" stroke="black" points="512,-105.5 512,-128.5 620,-128.5 620,-105.5 512,-105.5"/>
<text text-anchor="middle" x="566" y="-113.3" font-family="FreeSans" font-size="14.00">SW3</text>
</g>
<!-- SW2&#45;&#45;SW3 -->
<g id="edge2" class="edge"><title>SW2&#45;&#45;SW3</title>
<path fill="none" stroke="black" d="M374.503,-117C413.396,-117 462.765,-117 501.634,-117"/>
<polygon fill="black" stroke="black" points="374.291,-113.5 364.291,-117 374.291,-120.5 374.291,-113.5"/>
<polygon fill="black" stroke="black" points="501.787,-120.5 511.787,-117 501.787,-113.5 501.787,-120.5"/>
<text text-anchor="middle" x="438" y="-123.4" font-family="FreeSans" font-size="12.00">Fa0/2 &#45; Fa0/1</text>
</g>
<!-- PC4 -->
<g id="node6" class="node"><title>PC4</title>
<polygon fill="none" stroke="black" points="512,-0.5 512,-23.5 620,-23.5 620,-0.5 512,-0.5"/>
<text text-anchor="middle" x="566" y="-8.3" font-family="FreeSans" font-size="14.00">PC5 [.105]</text>
</g>
<!-- SW3&#45;&#45;PC4 -->
<g id="edge7" class="edge"><title>SW3&#45;&#45;PC4</title>
<path fill="none" stroke="black" d="M566,-95.2445C566,-77.4247 566,-51.8581 566,-33.975"/>
<polygon fill="black" stroke="black" points="562.5,-95.3651 566,-105.365 569.5,-95.3652 562.5,-95.3651"/>
<polygon fill="black" stroke="black" points="569.5,-33.7313 566,-23.7313 562.5,-33.7314 569.5,-33.7313"/>
<text text-anchor="middle" x="598" y="-61.4" font-family="FreeSans" font-size="12.00">Fa0/3 &#45; Fa0</text>
</g>
<!-- SW4 -->
<g id="node4" class="node"><title>SW4</title>
<polygon fill="none" stroke="black" points="256,-210.5 256,-233.5 364,-233.5 364,-210.5 256,-210.5"/>
<text text-anchor="middle" x="310" y="-218.3" font-family="FreeSans" font-size="14.00">SW4</text>
</g>
<!-- SW4&#45;&#45;SW1 -->
<g id="edge3" class="edge"><title>SW4&#45;&#45;SW1</title>
<path fill="none" stroke="black" d="M274.045,-206.534C225.235,-186.895 138.52,-152.006 89.7935,-132.401"/>
<polygon fill="black" stroke="black" points="272.984,-209.879 283.568,-210.365 275.597,-203.385 272.984,-209.879"/>
<polygon fill="black" stroke="black" points="90.8722,-129.063 80.2885,-128.577 88.2593,-135.557 90.8722,-129.063"/>
<text text-anchor="middle" x="236" y="-166.4" font-family="FreeSans" font-size="12.00">Fa0/4 &#45; Fa0/1</text>
</g>
<!-- SW4&#45;&#45;SW2 -->
<g id="edge4" class="edge"><title>SW4&#45;&#45;SW2</title>
<path fill="none" stroke="black" d="M310,-200.245C310,-182.425 310,-156.858 310,-138.975"/>
<polygon fill="black" stroke="black" points="306.5,-200.365 310,-210.365 313.5,-200.365 306.5,-200.365"/>
<polygon fill="black" stroke="black" points="313.5,-138.731 310,-128.731 306.5,-138.731 313.5,-138.731"/>
<text text-anchor="middle" x="348" y="-166.4" font-family="FreeSans" font-size="12.00">Fa0/3 &#45; Fa0/5</text>
</g>
<!-- SW4&#45;&#45;SW3 -->
<g id="edge5" class="edge"><title>SW4&#45;&#45;SW3</title>
<path fill="none" stroke="black" d="M345.955,-206.534C394.765,-186.895 481.48,-152.006 530.206,-132.401"/>
<polygon fill="black" stroke="black" points="344.403,-203.385 336.432,-210.365 347.016,-209.879 344.403,-203.385"/>
<polygon fill="black" stroke="black" points="531.741,-135.557 539.712,-128.577 529.128,-129.063 531.741,-135.557"/>
<text text-anchor="middle" x="482" y="-166.4" font-family="FreeSans" font-size="12.00">Po1 &#45; Po2</text>
</g>
</g>
</svg>
